<svg xmlns="http://www.w3.org/2000/svg" width="500" viewBox="0 0 375 375" height="500" version="1.0"><defs><clipPath id="a"><path d="M92 14.273h157V264.75H92zm0 0"/></clipPath><clipPath id="b"><path d="M55.305 75H119v65H55.305zm0 0"/></clipPath><clipPath id="c"><path d="M248 129h57.805v46H248zm0 0"/></clipPath><clipPath id="d"><path d="M129 114h120v150.75H129zm0 0"/></clipPath><clipPath id="e"><path d="M147.352 162.168h49.214v49.21h-49.214zm0 0"/></clipPath><clipPath id="f"><path d="M171.957 162.168c-13.59 0-24.605 11.016-24.605 24.605 0 13.59 11.015 24.606 24.605 24.606s24.61-11.016 24.61-24.606c0-13.59-11.02-24.605-24.61-24.605"/></clipPath></defs><g clip-path="url(#a)"><path fill="#004aad" d="M92.988 190.996c2.13 41.063 36.16 73.727 77.88 73.727 43.054 0 77.976-34.848 77.976-77.817 0-33.332-21.004-61.742-50.492-72.84 14.14 11.668 23.164 29.332 23.164 49.118 0 22.543-11.727 42.363-29.457 53.683a37.707 37.707 0 01-6.61 3.711 37.18 37.18 0 01-14.586 2.98c-20.398 0-36.89-16.488-36.89-36.812 0-8.941 3.18-17.094 8.453-23.469 25.004-30.125 38.73-49.535 38.73-88.53 0-22.04-5.91-42.684-16.234-60.477 3.75 9.835 5.781 20.488 5.781 31.648 0 30.789-15.887 59.234-41.976 75.469-17.473 11.226-30.153 29.207-34.348 50.23a78.247 78.247 0 00-1.527 15.281c.011 1.375.078 2.735.136 4.098zm0 0" fill-rule="evenodd"/></g><g clip-path="url(#b)"><path fill="#00c2cb" d="M98.422 139.469c-12.266-10.528-31.203-31.016-43.117-64.403 0 0 18.113 29.809 63.136 43.032a85.385 85.385 0 00-20.02 21.37zm0 0" fill-rule="evenodd"/></g><g clip-path="url(#c)"><path fill="#004aad" d="M248.84 149.43c13.566-7.993 32.504-16.176 56.969-19.79 0 0-29.325 14.876-49.282 44.903a85.826 85.826 0 00-7.687-25.113zm0 0" fill-rule="evenodd"/></g><g clip-path="url(#d)"><path fill="#00c2cb" d="M248.84 186.906c0-21.879-9.055-41.672-23.64-55.812a78.204 78.204 0 00-26.848-17.028c5.18 4.246 9.664 9.356 13.28 15.032 6.259 9.863 9.884 21.53 9.884 34.09 0 22.546-11.727 42.367-29.457 53.687a37.96 37.96 0 01-6.61 3.71 37.25 37.25 0 01-14.586 2.981c-20.398 0-36.89-16.492-36.89-36.816 0-4.379.761-8.598 2.16-12.492-4.578 9.89-7.117 20.926-7.117 32.531 0 21.879 9.054 41.672 23.636 55.813a78.422 78.422 0 0018.211 2.12c43.059 0 77.977-34.847 77.977-77.816zm0 0" fill-rule="evenodd"/></g><path fill="#00c2cb" d="M121.27 34.668c14.109 0 25.546 11.414 25.546 25.527 0 14.078-11.437 25.492-25.546 25.492-14.11 0-25.547-11.414-25.547-25.492 0-14.113 11.437-25.527 25.547-25.527zm0 0" fill-rule="evenodd"/><path fill="#004aad" d="M250.555 86.605c10.773 0 19.48 8.723 19.48 19.47 0 10.75-8.707 19.472-19.48 19.472-10.77 0-19.508-8.723-19.508-19.473 0-10.746 8.738-19.469 19.508-19.469zm0 0" fill-rule="evenodd"/><g clip-path="url(#e)"><g clip-path="url(#f)"><path fill="#004aad" d="M147.352 162.168h49.214v49.21h-49.214zm0 0"/></g></g><path d="M90.66 298.507H58.327v8.425h11.657v33.407h9.023v-33.407H90.66zm15.114 33.464v-8.605h14.523v-8.188h-14.523v-8.304h16.074v-8.367H96.751v41.832h25.757v-8.368zm52.109 8.368h9.86l-16.915-41.832h-8.543l-16.437 41.832h9.62l2.872-7.887h16.613zm-11.238-30.778l5.5 15h-10.997zm56.765-11.054h-16.074v41.832h9.023V327.31h7.051c8.426 0 14.762-6.156 14.762-14.402 0-8.246-6.395-14.402-14.762-14.402zm-.418 20.437h-6.633v-12.012h6.633c3.586 0 6.035 2.512 6.035 5.977 0 3.465-2.449 6.035-6.035 6.035zm31.908 13.027l17.27-31.793v-1.671h-29.937v8.425h16.492l-17.45 32.09v1.317h31.614v-8.368zm44.278 9.325c12.73 0 22.23-9.383 22.23-21.875 0-12.43-9.5-21.813-22.23-21.813-12.789 0-22.352 9.445-22.352 21.813 0 12.433 9.563 21.875 22.352 21.875zm0-8.547c-7.469 0-13.148-5.797-13.148-13.328 0-7.528 5.68-13.266 13.148-13.266 7.469 0 13.027 5.68 13.027 13.266 0 7.59-5.558 13.328-13.027 13.328zm0 0" fill="#004aad"/></svg>