<svg xmlns="http://www.w3.org/2000/svg" xmlns:xlink="http://www.w3.org/1999/xlink" width="500" zoomAndPan="magnify" viewBox="0 0 375 374.999991" height="500" preserveAspectRatio="xMidYMid meet" version="1.0"><defs><g/><clipPath id="2b7f9f332f"><path d="M 92 14.273438 L 249 14.273438 L 249 264.75 L 92 264.75 Z M 92 14.273438 " clip-rule="nonzero"/></clipPath><clipPath id="a1a66485f4"><path d="M 55.304688 75 L 119 75 L 119 140 L 55.304688 140 Z M 55.304688 75 " clip-rule="nonzero"/></clipPath><clipPath id="2925ce8929"><path d="M 248 129 L 305.804688 129 L 305.804688 175 L 248 175 Z M 248 129 " clip-rule="nonzero"/></clipPath><clipPath id="823db27366"><path d="M 129 114 L 249 114 L 249 264.75 L 129 264.75 Z M 129 114 " clip-rule="nonzero"/></clipPath><clipPath id="3a682bb6ac"><path d="M 147.351562 162.167969 L 196.566406 162.167969 L 196.566406 211.378906 L 147.351562 211.378906 Z M 147.351562 162.167969 " clip-rule="nonzero"/></clipPath><clipPath id="645c01cdb0"><path d="M 171.957031 162.167969 C 158.367188 162.167969 147.351562 173.183594 147.351562 186.773438 C 147.351562 200.363281 158.367188 211.378906 171.957031 211.378906 C 185.546875 211.378906 196.566406 200.363281 196.566406 186.773438 C 196.566406 173.183594 185.546875 162.167969 171.957031 162.167969 " clip-rule="nonzero"/></clipPath></defs><g clip-path="url(#2b7f9f332f)"><path fill="#004aad" d="M 92.988281 190.996094 C 95.117188 232.058594 129.148438 264.722656 170.867188 264.722656 C 213.921875 264.722656 248.84375 229.875 248.84375 186.90625 C 248.84375 153.574219 227.839844 125.164062 198.351562 114.066406 C 212.492188 125.734375 221.515625 143.398438 221.515625 163.183594 C 221.515625 185.726562 209.789062 205.546875 192.058594 216.867188 C 189.996094 218.324219 187.765625 219.5625 185.449219 220.578125 C 180.964844 222.484375 176.042969 223.558594 170.863281 223.558594 C 150.464844 223.558594 133.972656 207.070312 133.972656 186.746094 C 133.972656 177.804688 137.152344 169.652344 142.425781 163.277344 C 167.429688 133.152344 181.15625 113.742188 181.15625 74.746094 C 181.15625 52.707031 175.246094 32.0625 164.921875 14.269531 C 168.671875 24.105469 170.703125 34.757812 170.703125 45.917969 C 170.703125 76.707031 154.816406 105.152344 128.726562 121.386719 C 111.253906 132.613281 98.574219 150.59375 94.378906 171.617188 C 93.394531 176.566406 92.851562 181.671875 92.851562 186.898438 C 92.863281 188.273438 92.929688 189.632812 92.988281 190.996094 Z M 92.988281 190.996094 " fill-opacity="1" fill-rule="evenodd"/></g><g clip-path="url(#a1a66485f4)"><path fill="#00c2cb" d="M 98.421875 139.46875 C 86.15625 128.941406 67.21875 108.453125 55.304688 75.066406 C 55.304688 75.066406 73.417969 104.875 118.441406 118.097656 C 110.53125 124.058594 103.792969 131.285156 98.421875 139.46875 Z M 98.421875 139.46875 " fill-opacity="1" fill-rule="evenodd"/></g><g clip-path="url(#2925ce8929)"><path fill="#004aad" d="M 248.839844 149.429688 C 262.40625 141.4375 281.34375 133.253906 305.808594 129.640625 C 305.808594 129.640625 276.484375 144.515625 256.527344 174.542969 C 255.257812 165.726562 252.625 157.257812 248.839844 149.429688 Z M 248.839844 149.429688 " fill-opacity="1" fill-rule="evenodd"/></g><g clip-path="url(#823db27366)"><path fill="#00c2cb" d="M 248.839844 186.90625 C 248.839844 165.027344 239.785156 145.234375 225.199219 131.09375 C 217.574219 123.707031 208.457031 117.871094 198.351562 114.066406 C 203.53125 118.3125 208.015625 123.421875 211.632812 129.097656 C 217.890625 138.960938 221.515625 150.628906 221.515625 163.1875 C 221.515625 185.734375 209.789062 205.554688 192.058594 216.875 C 189.996094 218.332031 187.765625 219.566406 185.449219 220.585938 C 180.964844 222.488281 176.042969 223.566406 170.863281 223.566406 C 150.464844 223.566406 133.972656 207.074219 133.972656 186.75 C 133.972656 182.371094 134.734375 178.152344 136.132812 174.257812 C 131.554688 184.148438 129.015625 195.183594 129.015625 206.789062 C 129.015625 228.667969 138.070312 248.460938 152.652344 262.601562 C 158.5 263.996094 164.597656 264.722656 170.863281 264.722656 C 213.921875 264.722656 248.839844 229.875 248.839844 186.90625 Z M 248.839844 186.90625 " fill-opacity="1" fill-rule="evenodd"/></g><path fill="#00c2cb" d="M 121.269531 34.667969 C 135.378906 34.667969 146.816406 46.082031 146.816406 60.195312 C 146.816406 74.273438 135.378906 85.6875 121.269531 85.6875 C 107.160156 85.6875 95.722656 74.273438 95.722656 60.195312 C 95.722656 46.082031 107.160156 34.667969 121.269531 34.667969 Z M 121.269531 34.667969 " fill-opacity="1" fill-rule="evenodd"/><path fill="#004aad" d="M 250.554688 86.605469 C 261.328125 86.605469 270.035156 95.328125 270.035156 106.074219 C 270.035156 116.824219 261.328125 125.546875 250.554688 125.546875 C 239.785156 125.546875 231.046875 116.824219 231.046875 106.074219 C 231.046875 95.328125 239.785156 86.605469 250.554688 86.605469 Z M 250.554688 86.605469 " fill-opacity="1" fill-rule="evenodd"/><g clip-path="url(#3a682bb6ac)"><g clip-path="url(#645c01cdb0)"><path fill="#004aad" d="M 147.351562 162.167969 L 196.566406 162.167969 L 196.566406 211.378906 L 147.351562 211.378906 Z M 147.351562 162.167969 " fill-opacity="1" fill-rule="nonzero"/></g></g><g fill="#004aad" fill-opacity="1"><g transform="translate(57.073572, 340.338636)"><g><path d="M 33.585938 -41.832031 L 1.253906 -41.832031 L 1.253906 -33.40625 L 12.910156 -33.40625 L 12.910156 0 L 21.933594 0 L 21.933594 -33.40625 L 33.585938 -33.40625 Z M 33.585938 -41.832031 "/></g></g></g><g fill="#004aad" fill-opacity="1"><g transform="translate(91.969269, 340.338636)"><g><path d="M 13.804688 -8.367188 L 13.804688 -16.972656 L 28.328125 -16.972656 L 28.328125 -25.160156 L 13.804688 -25.160156 L 13.804688 -33.464844 L 29.878906 -33.464844 L 29.878906 -41.832031 L 4.78125 -41.832031 L 4.78125 0 L 30.539062 0 L 30.539062 -8.367188 Z M 13.804688 -8.367188 "/></g></g></g><g fill="#004aad" fill-opacity="1"><g transform="translate(125.371138, 340.338636)"><g><path d="M 32.511719 0 L 42.371094 0 L 25.457031 -41.832031 L 16.914062 -41.832031 L 0.476562 0 L 10.097656 0 L 12.96875 -7.886719 L 29.582031 -7.886719 Z M 21.273438 -30.777344 L 26.773438 -15.777344 L 15.777344 -15.777344 Z M 21.273438 -30.777344 "/></g></g></g><g fill="#004aad" fill-opacity="1"><g transform="translate(168.27373, 340.338636)"><g/></g></g><g fill="#004aad" fill-opacity="1"><g transform="translate(182.554671, 340.338636)"><g><path d="M 20.855469 -41.832031 L 4.78125 -41.832031 L 4.78125 0 L 13.804688 0 L 13.804688 -13.027344 L 20.855469 -13.027344 C 29.28125 -13.027344 35.617188 -19.183594 35.617188 -27.429688 C 35.617188 -35.675781 29.222656 -41.832031 20.855469 -41.832031 Z M 20.4375 -21.394531 L 13.804688 -21.394531 L 13.804688 -33.40625 L 20.4375 -33.40625 C 24.023438 -33.40625 26.472656 -30.894531 26.472656 -27.429688 C 26.472656 -23.964844 24.023438 -21.394531 20.4375 -21.394531 Z M 20.4375 -21.394531 "/></g></g></g><g fill="#004aad" fill-opacity="1"><g transform="translate(219.720974, 340.338636)"><g><path d="M 15.179688 -8.367188 L 32.449219 -40.160156 L 32.449219 -41.832031 L 2.511719 -41.832031 L 2.511719 -33.40625 L 19.003906 -33.40625 L 1.554688 -1.316406 L 1.554688 0 L 33.167969 0 L 33.167969 -8.367188 Z M 15.179688 -8.367188 "/></g></g></g><g fill="#004aad" fill-opacity="1"><g transform="translate(254.55692, 340.338636)"><g><path d="M 24.621094 0.957031 C 37.351562 0.957031 46.851562 -8.425781 46.851562 -20.917969 C 46.851562 -33.347656 37.351562 -42.730469 24.621094 -42.730469 C 11.832031 -42.730469 2.269531 -33.285156 2.269531 -20.917969 C 2.269531 -8.484375 11.832031 0.957031 24.621094 0.957031 Z M 24.621094 -7.589844 C 17.152344 -7.589844 11.472656 -13.386719 11.472656 -20.917969 C 11.472656 -28.445312 17.152344 -34.183594 24.621094 -34.183594 C 32.089844 -34.183594 37.648438 -28.503906 37.648438 -20.917969 C 37.648438 -13.328125 32.089844 -7.589844 24.621094 -7.589844 Z M 24.621094 -7.589844 "/></g></g></g></svg>